<svg xmlns="http://www.w3.org/2000/svg" xmlns:xlink="http://www.w3.org/1999/xlink" width="90" height="90" viewBox="0 0 90 90">
  <defs>
    <style>
      .cls-1 {
        fill: #46eada;
      }

      .cls-2 {
        fill: #fff;
      }

      .cls-3 {
        opacity: 0.1;
        clip-path: url(#clip-path);
      }

      .cls-4 {
        filter: url(#Path_5);
      }
    </style>
    <filter id="Path_5" x="0" y="0" width="90" height="90" filterUnits="userSpaceOnUse">
      <feOffset dy="1" input="SourceAlpha"/>
      <feGaussianBlur stdDeviation="1" result="blur"/>
      <feFlood flood-opacity="0.161"/>
      <feComposite operator="in" in2="blur"/>
      <feComposite in="SourceGraphic"/>
    </filter>
    <clipPath id="clip-path">
      <rect id="Rectangle_58" data-name="Rectangle 58" class="cls-1" width="36" height="36"/>
    </clipPath>
  </defs>
  <g id="Group_103" data-name="Group 103" transform="translate(-1716 -817)">
    <g id="Group_50" data-name="Group 50" transform="translate(-73 299)">
      <g class="cls-4" transform="matrix(1, 0, 0, 1, 1789, 518)">
        <path id="Path_5-2" data-name="Path 5" class="cls-2" d="M42,0A42,42,0,1,1,0,42,42,42,0,0,1,42,0Z" transform="translate(3 2)"/>
      </g>
      <g id="Mask_Group_3" data-name="Mask Group 3" class="cls-3" transform="translate(1820 544)">
        <path id="Path_3" data-name="Path 3" d="M31.621,14.69,7.288,1.438A3.589,3.589,0,0,0,2,4.621v26.5A3.589,3.589,0,0,0,7.288,34.31l13.9-7.568,10.437-5.684a3.634,3.634,0,0,0,0-6.367Z" transform="translate(0.25 0.126)"/>
      </g>
    </g>
  </g>
</svg>
